<svg width="40" height="46" viewBox="0 0 40 46" fill="none" xmlns="http://www.w3.org/2000/svg">
<path d="M14.6327 37.5251L12.1827 35.0751L17.5493 29.7084L12.1827 24.3417L14.6327 21.8917L19.9993 27.2584L25.366 21.8917L27.816 24.3417L22.4494 29.7084L27.816 35.0751L25.366 37.5251L19.9993 32.1584L14.6327 37.5251ZM4.36602 45.1667C3.19935 45.1667 2.20768 44.7584 1.39102 43.9417C0.574349 43.1251 0.166016 42.1334 0.166016 40.9667V9.70008C0.166016 8.53341 0.574349 7.54175 1.39102 6.72508C2.20768 5.90841 3.19935 5.50008 4.36602 5.50008H7.63268V0.541748H11.191V5.50008H28.866V0.541748H32.366V5.50008H35.6327C36.7994 5.50008 37.791 5.90841 38.6077 6.72508C39.4244 7.54175 39.8327 8.53341 39.8327 9.70008V40.9667C39.8327 42.1334 39.4244 43.1251 38.6077 43.9417C37.791 44.7584 36.7994 45.1667 35.6327 45.1667H4.36602ZM4.36602 41.6667H35.6327C35.7882 41.6667 35.9438 41.589 36.0993 41.4334C36.2549 41.2779 36.3327 41.1223 36.3327 40.9667V19.0334H3.66602V40.9667C3.66602 41.1223 3.74379 41.2779 3.89935 41.4334C4.0549 41.589 4.21046 41.6667 4.36602 41.6667ZM3.66602 15.5334H36.3327V9.70008C36.3327 9.54453 36.2549 9.38897 36.0993 9.23341C35.9438 9.07786 35.7882 9.00008 35.6327 9.00008H4.36602C4.21046 9.00008 4.0549 9.07786 3.89935 9.23341C3.74379 9.38897 3.66602 9.54453 3.66602 9.70008V15.5334Z" fill="#00DA93"/>
</svg>
