<svg width="24" height="24" viewBox="0 0 24 24" fill="none" xmlns="http://www.w3.org/2000/svg">
<path d="M7.0749 18.825L4.1999 18.25C4.01657 18.2167 3.86657 18.1208 3.7499 17.9625C3.63324 17.8042 3.59157 17.6333 3.6249 17.45L3.9249 14.625L2.0749 12.475C1.95824 12.3583 1.8999 12.2 1.8999 12C1.8999 11.8 1.95824 11.6417 2.0749 11.525L3.9249 9.39999L3.6249 6.57499C3.59157 6.39166 3.63324 6.22083 3.7499 6.06249C3.86657 5.90416 4.01657 5.80833 4.1999 5.77499L7.0749 5.19999L8.5249 2.69999C8.60824 2.54999 8.7374 2.44166 8.9124 2.37499C9.0874 2.30833 9.26657 2.31666 9.4499 2.39999L11.9999 3.54999L14.5499 2.39999C14.7332 2.31666 14.9124 2.29999 15.0874 2.34999C15.2624 2.39999 15.3916 2.51666 15.4749 2.69999L16.9499 5.19999L19.7999 5.77499C19.9832 5.80833 20.1332 5.90416 20.2499 6.06249C20.3666 6.22083 20.4082 6.39166 20.3749 6.57499L20.0749 9.39999L21.9249 11.525C22.0416 11.6417 22.0999 11.8 22.0999 12C22.0999 12.2 22.0416 12.3583 21.9249 12.475L20.0749 14.625L20.3749 17.45C20.4082 17.6333 20.3666 17.8042 20.2499 17.9625C20.1332 18.1208 19.9832 18.2167 19.7999 18.25L16.9499 18.825L15.4749 21.3C15.3916 21.4833 15.2624 21.6 15.0874 21.65C14.9124 21.7 14.7332 21.6833 14.5499 21.6L11.9999 20.45L9.4499 21.6C9.26657 21.6833 9.0874 21.6917 8.9124 21.625C8.7374 21.5583 8.60824 21.45 8.5249 21.3L7.0749 18.825ZM10.4249 14.525C10.5749 14.675 10.7457 14.75 10.9374 14.75C11.1291 14.75 11.2999 14.675 11.4499 14.525L15.8749 10.15C15.9749 10.05 16.0166 9.92083 15.9999 9.76249C15.9832 9.60416 15.9249 9.46666 15.8249 9.34999C15.7082 9.23333 15.5707 9.17916 15.4124 9.18749C15.2541 9.19583 15.1082 9.25833 14.9749 9.37499L10.9249 13.425L9.0249 11.425C8.90824 11.3083 8.76657 11.2542 8.5999 11.2625C8.43324 11.2708 8.29157 11.3333 8.1749 11.45C8.05824 11.5833 7.99574 11.7292 7.9874 11.8875C7.97907 12.0458 8.04157 12.1833 8.1749 12.3L10.4249 14.525ZM9.3749 20.375L11.9999 19.275L14.6999 20.375L16.2999 17.9L19.1749 17.2L18.8999 14.25L20.8749 12L18.8999 9.72499L19.1749 6.77499L16.2999 6.09999L14.6499 3.62499L11.9999 4.72499L9.2999 3.62499L7.6999 6.09999L4.8249 6.77499L5.0999 9.72499L3.1249 12L5.0999 14.25L4.8249 17.225L7.6999 17.9L9.3749 20.375Z" fill="#867F70"/>
</svg>
