<svg width="24" height="24" viewBox="0 0 24 24" fill="none" xmlns="http://www.w3.org/2000/svg">
<path d="M15.9499 12.225C15.1666 11.5583 14.4416 10.9083 13.7749 10.275C13.1082 9.64165 12.5249 9.02499 12.0249 8.42499C11.5249 7.82499 11.1291 7.24582 10.8374 6.68749C10.5457 6.12915 10.3999 5.59999 10.3999 5.09999C10.3999 4.31665 10.6707 3.65415 11.2124 3.11249C11.7541 2.57082 12.4166 2.29999 13.1999 2.29999C13.6666 2.29999 14.1416 2.43749 14.6249 2.71249C15.1082 2.98749 15.5499 3.38332 15.9499 3.89999C16.3332 3.38332 16.7666 2.98749 17.2499 2.71249C17.7332 2.43749 18.2082 2.29999 18.6749 2.29999C19.4582 2.29999 20.1207 2.57082 20.6624 3.11249C21.2041 3.65415 21.4749 4.31665 21.4749 5.09999C21.4749 5.59999 21.3291 6.12915 21.0374 6.68749C20.7457 7.24582 20.3499 7.82499 19.8499 8.42499C19.3499 9.02499 18.7624 9.64165 18.0874 10.275C17.4124 10.9083 16.6999 11.5583 15.9499 12.225ZM15.9499 10.65C17.0832 9.64999 18.0999 8.65832 18.9999 7.67499C19.8999 6.69165 20.3499 5.83332 20.3499 5.09999C20.3499 4.61665 20.1957 4.22082 19.8874 3.91249C19.5791 3.60415 19.1832 3.44999 18.6999 3.44999C18.3999 3.44999 18.0957 3.52915 17.7874 3.68749C17.4791 3.84582 17.1416 4.14999 16.7749 4.59999L15.9499 5.64999L15.0999 4.59999C14.7332 4.14999 14.3916 3.84582 14.0749 3.68749C13.7582 3.52915 13.4666 3.44999 13.1999 3.44999C12.6999 3.44999 12.2957 3.60415 11.9874 3.91249C11.6791 4.22082 11.5249 4.61665 11.5249 5.09999C11.5249 5.83332 11.9749 6.69165 12.8749 7.67499C13.7749 8.65832 14.7999 9.64999 15.9499 10.65ZM13.9499 21.75L6.0749 19.475V20.825H1.5249V12.1H8.5249L14.7749 14.425C15.1582 14.5583 15.4832 14.7917 15.7499 15.125C16.0166 15.4583 16.1499 15.95 16.1499 16.6H19.2999C19.9166 16.6 20.4082 16.825 20.7749 17.275C21.1416 17.725 21.3249 18.3333 21.3249 19.1V19.475L13.9499 21.75ZM2.6499 19.7H4.8999V13.225H2.6499V19.7ZM13.8499 20.575L20.1499 18.65C20.0832 18.3333 19.9791 18.1042 19.8374 17.9625C19.6957 17.8208 19.5166 17.75 19.2999 17.75H14.2749C13.8082 17.75 13.3541 17.7167 12.9124 17.65C12.4707 17.5833 12.0749 17.4917 11.7249 17.375L9.6749 16.75L10.1249 15.625L11.9499 16.25C12.3499 16.3833 12.7457 16.475 13.1374 16.525C13.5291 16.575 14.1332 16.6 14.9499 16.6C14.9499 16.35 14.9082 16.125 14.8249 15.925C14.7416 15.725 14.5999 15.5833 14.3999 15.5L8.3499 13.225H6.0749V18.275L13.8499 20.575Z" fill="#867F70"/>
</svg>
