<svg width="24" height="24" viewBox="0 0 24 24" fill="none" xmlns="http://www.w3.org/2000/svg">
<path d="M1.75 19.3V17.4C1.75 16.8833 1.8875 16.4208 2.1625 16.0125C2.4375 15.6042 2.81667 15.2917 3.3 15.075C4.38333 14.6083 5.37083 14.2583 6.2625 14.025C7.15417 13.7917 8.15833 13.675 9.275 13.675C10.375 13.675 11.3667 13.7917 12.25 14.025C13.1333 14.2583 14.1167 14.6083 15.2 15.075C15.6833 15.2917 16.0625 15.6042 16.3375 16.0125C16.6125 16.4208 16.75 16.8833 16.75 17.4V19.3H1.75ZM18.4 19.3V17.45C18.4 16.55 18.1917 15.8042 17.775 15.2125C17.3583 14.6208 16.8167 14.1333 16.15 13.75C17.0333 13.8833 17.875 14.0583 18.675 14.275C19.475 14.4917 20.1417 14.7417 20.675 15.025C21.1583 15.2917 21.5417 15.6333 21.825 16.05C22.1083 16.4667 22.25 16.9333 22.25 17.45V19.3H18.4ZM9.275 11.675C8.30833 11.675 7.5125 11.3625 6.8875 10.7375C6.2625 10.1125 5.95 9.31665 5.95 8.34999C5.95 7.38332 6.2625 6.59165 6.8875 5.97499C7.5125 5.35832 8.30833 5.04999 9.275 5.04999C10.225 5.04999 11.0125 5.35832 11.6375 5.97499C12.2625 6.59165 12.575 7.38332 12.575 8.34999C12.575 9.31665 12.2625 10.1125 11.6375 10.7375C11.0125 11.3625 10.225 11.675 9.275 11.675ZM17.15 8.34999C17.15 9.31665 16.8417 10.1125 16.225 10.7375C15.6083 11.3625 14.8167 11.675 13.85 11.675C13.7333 11.675 13.6125 11.6667 13.4875 11.65C13.3625 11.6333 13.2417 11.6083 13.125 11.575C13.475 11.175 13.7417 10.7042 13.925 10.1625C14.1083 9.62082 14.2 9.01665 14.2 8.34999C14.2 7.69999 14.1042 7.11665 13.9125 6.59999C13.7208 6.08332 13.4583 5.59999 13.125 5.14999C13.225 5.11665 13.3417 5.09165 13.475 5.07499C13.6083 5.05832 13.7333 5.04999 13.85 5.04999C14.8167 5.04999 15.6083 5.35832 16.225 5.97499C16.8417 6.59165 17.15 7.38332 17.15 8.34999ZM2.9 18.175H15.625V17.4C15.625 17.1333 15.55 16.8833 15.4 16.65C15.25 16.4167 15.0333 16.2333 14.75 16.1C13.7 15.6167 12.775 15.2792 11.975 15.0875C11.175 14.8958 10.275 14.8 9.275 14.8C8.25833 14.8 7.35 14.8958 6.55 15.0875C5.75 15.2792 4.825 15.6167 3.775 16.1C3.49167 16.2333 3.275 16.4167 3.125 16.65C2.975 16.8833 2.9 17.1333 2.9 17.4V18.175ZM9.25 10.55C9.88333 10.55 10.4083 10.3417 10.825 9.92499C11.2417 9.50832 11.45 8.98332 11.45 8.34999C11.45 7.73332 11.2417 7.21665 10.825 6.79999C10.4083 6.38332 9.88333 6.17499 9.25 6.17499C8.63333 6.17499 8.11667 6.38332 7.7 6.79999C7.28333 7.21665 7.075 7.73332 7.075 8.34999C7.075 8.98332 7.28333 9.50832 7.7 9.92499C8.11667 10.3417 8.63333 10.55 9.25 10.55Z" fill="#867F70"/>
</svg>
